<svg xmlns="http://www.w3.org/2000/svg" viewBox="0 0 160 160" role="img" aria-label="MonkeyCode monkey">
  <defs>
    <style>
      .blink { animation: blink 7.2s ease-in-out infinite; transform-origin: center; }
      @keyframes blink { 0%, 46%, 50%, 100% { transform: scaleY(0); } 48% { transform: scaleY(1); } }
      @media (prefers-reduced-motion: reduce) { .blink { animation: none; transform: scaleY(0); } }
    </style>
    <linearGradient id="fur" x1="0" y1="0" x2="1" y2="1">
      <stop offset="0" stop-color="#8b5a3c"/>
      <stop offset="1" stop-color="#563321"/>
    </linearGradient>
    <filter id="shadow" x="-30%" y="-30%" width="160%" height="180%">
      <feDropShadow dx="0" dy="6" stdDeviation="5" flood-color="#000" flood-opacity=".25"/>
    </filter>
  </defs>
  <ellipse cx="80" cy="145" rx="45" ry="8" fill="#000" opacity=".16"/>
  <g filter="url(#shadow)">
    <circle cx="33" cy="72" r="25" fill="url(#fur)"/>
    <circle cx="127" cy="72" r="25" fill="url(#fur)"/>
    <circle cx="33" cy="72" r="14" fill="#e7b989"/>
    <circle cx="127" cy="72" r="14" fill="#e7b989"/>
    <ellipse cx="80" cy="80" rx="55" ry="61" fill="url(#fur)"/>
    <path d="M45 72c0-25 16-43 35-43s35 18 35 43c0 7-2 13-5 18 7 6 11 15 11 25 0 20-18 31-41 31s-41-11-41-31c0-10 4-19 11-25-3-5-5-11-5-18z" fill="#f1c99d"/>
    <ellipse cx="80" cy="113" rx="34" ry="27" fill="#e8b784"/>
    <ellipse cx="62" cy="73" rx="7" ry="9" fill="#21160f"/>
    <ellipse cx="98" cy="73" rx="7" ry="9" fill="#21160f"/>
    <circle cx="60" cy="70" r="2" fill="#fff"/>
    <circle cx="96" cy="70" r="2" fill="#fff"/>
    <path class="blink" d="M53 73h18M89 73h18" stroke="#e7b989" stroke-width="12" stroke-linecap="round"/>
    <ellipse cx="80" cy="99" rx="6" ry="4" fill="#6a3d27"/>
    <path d="M65 115c8 10 22 10 30 0" fill="none" stroke="#6a3d27" stroke-width="5" stroke-linecap="round"/>
    <path d="M47 40c7-15 19-24 33-26M113 40c-7-15-19-24-33-26" fill="none" stroke="#563321" stroke-width="10" stroke-linecap="round"/>
    <rect x="50" y="17" width="60" height="19" rx="9.5" fill="#151a27"/>
    <path d="M61 26h13M86 26h13" stroke="#70e1f5" stroke-width="4" stroke-linecap="round"/>
  </g>
</svg>
