<svg xmlns="http://www.w3.org/2000/svg" viewBox="0 0 160 160" role="img" aria-label="MonkeyCode monkey being petted">
  <defs><linearGradient id="fur" x1="35" y1="27" x2="125" y2="145" gradientUnits="userSpaceOnUse"><stop stop-color="#8b5a3c"/><stop offset="1" stop-color="#563321"/></linearGradient></defs>
  <ellipse cx="80" cy="130" rx="39" ry="22" fill="url(#fur)"/>
  <circle cx="38" cy="72" r="18" fill="url(#fur)"/><circle cx="122" cy="72" r="18" fill="url(#fur)"/><circle cx="38" cy="72" r="10" fill="#e8b784"/><circle cx="122" cy="72" r="10" fill="#e8b784"/>
  <circle cx="80" cy="78" r="47" fill="url(#fur)"/><path d="M43 58Q80 42 117 58L113 71Q80 60 47 71Z" fill="#151a27"/><path d="M54 61Q80 53 106 61" fill="none" stroke="#70e1f5" stroke-width="5" stroke-linecap="round"/>
  <ellipse cx="80" cy="91" rx="31" ry="27" fill="#f1c99d"/>
  <path d="M59 86Q66 78 73 86M87 86Q94 78 101 86" fill="none" stroke="#151a27" stroke-width="4" stroke-linecap="round"/>
  <ellipse cx="80" cy="97" rx="5" ry="4" fill="#563321"/><path d="M69 106Q80 115 91 106" fill="none" stroke="#563321" stroke-width="4" stroke-linecap="round"/>
  <path d="M65 36Q65 17 76 13Q87 10 91 21L94 38" fill="#f1c99d" stroke="#e8b784" stroke-width="4" stroke-linejoin="round"/>
  <path d="M112 31C112 22 100 20 97 29C94 20 82 22 82 31C82 39 97 48 97 48C97 48 112 39 112 31Z" fill="#70e1f5"/>
  <path d="M52 130Q43 138 48 146M108 130Q117 138 112 146" fill="none" stroke="#563321" stroke-width="9" stroke-linecap="round"/>
</svg>
