<svg xmlns="http://www.w3.org/2000/svg" viewBox="0 0 160 160" role="img" aria-label="MonkeyCode monkey sleepy">
  <defs><linearGradient id="fur" x1="36" y1="29" x2="124" y2="145" gradientUnits="userSpaceOnUse"><stop stop-color="#8b5a3c"/><stop offset="1" stop-color="#563321"/></linearGradient></defs>
  <ellipse cx="80" cy="130" rx="40" ry="22" fill="url(#fur)"/>
  <circle cx="38" cy="71" r="18" fill="url(#fur)"/><circle cx="122" cy="71" r="18" fill="url(#fur)"/>
  <circle cx="38" cy="71" r="10" fill="#e8b784"/><circle cx="122" cy="71" r="10" fill="#e8b784"/>
  <circle cx="80" cy="77" r="48" fill="url(#fur)"/>
  <path d="M42 57Q80 40 118 57L114 70Q80 58 46 70Z" fill="#151a27"/><path d="M53 60Q80 51 107 60" fill="none" stroke="#70e1f5" stroke-width="5" stroke-linecap="round"/>
  <ellipse cx="80" cy="90" rx="31" ry="27" fill="#f1c99d"/>
  <path d="M59 84Q66 87 73 84M87 84Q94 87 101 84" fill="none" stroke="#151a27" stroke-width="5" stroke-linecap="round"/>
  <ellipse cx="80" cy="96" rx="5" ry="4" fill="#563321"/><ellipse cx="80" cy="108" rx="6" ry="5" fill="#563321"/>
  <path d="M52 128Q43 136 47 146M108 128Q117 136 113 146" fill="none" stroke="#563321" stroke-width="9" stroke-linecap="round"/>
</svg>
