<svg xmlns="http://www.w3.org/2000/svg" viewBox="0 0 160 160" role="img" aria-label="MonkeyCode monkey waving">
  <defs><linearGradient id="fur" x1="33" y1="23" x2="128" y2="145" gradientUnits="userSpaceOnUse"><stop stop-color="#8b5a3c"/><stop offset="1" stop-color="#563321"/></linearGradient></defs>
  <ellipse cx="80" cy="128" rx="38" ry="23" fill="url(#fur)"/>
  <path d="M108 116Q126 92 128 55" fill="none" stroke="#8b5a3c" stroke-width="13" stroke-linecap="round"/>
  <ellipse cx="130" cy="43" rx="11" ry="14" fill="#f1c99d" transform="rotate(12 130 43)"/>
  <path d="M124 35L120 25M130 32L130 21M136 35L141 25" fill="none" stroke="#e8b784" stroke-width="5" stroke-linecap="round"/>
  <circle cx="39" cy="68" r="17" fill="url(#fur)"/><circle cx="121" cy="68" r="17" fill="url(#fur)"/><circle cx="39" cy="68" r="9" fill="#e8b784"/><circle cx="121" cy="68" r="9" fill="#e8b784"/>
  <circle cx="80" cy="73" r="46" fill="url(#fur)"/><path d="M44 54Q80 38 116 54L112 67Q80 56 48 67Z" fill="#151a27"/><path d="M55 57Q80 49 105 57" fill="none" stroke="#70e1f5" stroke-width="5" stroke-linecap="round"/>
  <ellipse cx="80" cy="86" rx="30" ry="26" fill="#f1c99d"/><circle cx="67" cy="77" r="4" fill="#151a27"/><circle cx="93" cy="77" r="4" fill="#151a27"/>
  <ellipse cx="80" cy="88" rx="5" ry="4" fill="#563321"/><path d="M69 98Q80 107 91 98" fill="none" stroke="#563321" stroke-width="4" stroke-linecap="round"/>
  <path d="M53 123Q43 132 47 142" fill="none" stroke="#563321" stroke-width="9" stroke-linecap="round"/>
</svg>
