<svg xmlns="http://www.w3.org/2000/svg" viewBox="0 0 160 160" role="img" aria-label="MonkeyCode monkey working">
  <defs>
    <linearGradient id="working-fur" x1="0" y1="0" x2="1" y2="1">
      <stop offset="0" stop-color="#8b5a3c"/><stop offset="1" stop-color="#563321"/>
    </linearGradient>
    <filter id="working-shadow" x="-30%" y="-30%" width="170%" height="180%">
      <feDropShadow dx="0" dy="6" stdDeviation="5" flood-color="#000" flood-opacity=".25"/>
    </filter>
  </defs>
  <ellipse cx="80" cy="145" rx="45" ry="8" fill="#000" opacity=".16"/>
  <g filter="url(#working-shadow)">
    <circle cx="33" cy="72" r="25" fill="url(#working-fur)"/><circle cx="127" cy="72" r="25" fill="url(#working-fur)"/>
    <circle cx="33" cy="72" r="14" fill="#e7b989"/><circle cx="127" cy="72" r="14" fill="#e7b989"/>
    <ellipse cx="80" cy="80" rx="55" ry="61" fill="url(#working-fur)"/>
    <path d="M45 72c0-25 16-43 35-43s35 18 35 43c0 7-2 13-5 18 7 6 11 15 11 25 0 20-18 31-41 31s-41-11-41-31c0-10 4-19 11-25-3-5-5-11-5-18z" fill="#f1c99d"/>
    <ellipse cx="80" cy="113" rx="34" ry="27" fill="#e8b784"/>
    <path d="M53 59l16 4M107 59l-16 4" stroke="#563321" stroke-width="5" stroke-linecap="round"/>
    <ellipse cx="62" cy="73" rx="6" ry="8" fill="#21160f"/><ellipse cx="98" cy="73" rx="6" ry="8" fill="#21160f"/>
    <circle cx="61" cy="71" r="1.8" fill="#fff"/><circle cx="97" cy="71" r="1.8" fill="#fff"/>
    <ellipse cx="80" cy="99" rx="6" ry="4" fill="#6a3d27"/><path d="M68 117h24" stroke="#6a3d27" stroke-width="5" stroke-linecap="round"/>
    <path d="M47 40c7-15 19-24 33-26M113 40c-7-15-19-24-33-26" fill="none" stroke="#563321" stroke-width="10" stroke-linecap="round"/>
    <rect x="50" y="17" width="60" height="19" rx="9.5" fill="#151a27"/>
    <path d="M59 26h15M86 26h15" stroke="#70e1f5" stroke-width="4" stroke-linecap="round"/>
    <rect x="107" y="105" width="42" height="29" rx="7" fill="#151a27" stroke="#4f7cff" stroke-width="3"/>
    <path d="M122 113l-6 6 6 6M134 113l6 6-6 6M130 111l-5 16" fill="none" stroke="#70e1f5" stroke-width="3" stroke-linecap="round" stroke-linejoin="round"/>
  </g>
</svg>
